<svg version="1.1" xmlns="http://www.w3.org/2000/svg" style="display: block;" viewBox="0 0 2048 744" preserveAspectRatio="none">
<path transform="translate(0,0)" fill="currentColor" d="M 780.99 76.9056 C 812.389 72.507 841.43 94.3342 845.935 125.718 C 850.439 157.101 828.711 186.216 797.343 190.827 C 765.824 195.46 736.539 173.604 732.013 142.07 C 727.487 110.536 749.441 81.3253 780.99 76.9056 z"/>
<path transform="translate(0,0)" fill="currentColor" d="M 558.635 77.2981 C 590.034 72.3863 619.425 93.9886 624.111 125.422 C 628.796 156.856 606.983 186.091 575.516 190.55 C 544.368 194.963 515.494 173.419 510.856 142.304 C 506.218 111.189 527.554 82.1601 558.635 77.2981 z"/>
<path transform="translate(0,0)" fill="currentColor" d="M 1393.43 0 L 1418.85 0 C 1433.44 9.88917 1450.17 16.5256 1453.41 35.8607 C 1457.11 57.971 1456.05 83.5559 1456.06 106.12 L 1456.07 209.559 L 1456.05 391.556 C 1456.03 443.334 1458.48 498.353 1448.88 549.219 C 1444.41 572.86 1425.06 612.098 1411.39 631.997 C 1379.03 678.466 1332.9 713.602 1279.5 732.451 C 1273.47 734.516 1264.15 737.905 1258.02 739.123 C 1248.78 740.961 1236.76 740.922 1227.86 744 L 1165.46 744 C 1152.95 741.005 1140.1 740.25 1127.37 736.871 C 1002.22 702.525 920.74 581.403 938.152 451.981 C 964.931 252.944 1195.11 159.72 1354.82 279.334 C 1355.85 280.11 1357.36 280.497 1358.63 280.662 C 1360.5 275.873 1359.96 243.718 1359.97 237.181 L 1359.91 102.209 C 1359.91 84.4278 1359.98 66.0366 1360 48.3015 C 1360.02 19.741 1373.01 14.7935 1393.43 0 z M 1211.6 645.485 C 1300.28 636.87 1365.35 558.248 1357.24 469.52 C 1349.12 380.793 1270.86 315.282 1182.09 322.899 C 1092.61 330.578 1026.46 409.595 1034.65 499.03 C 1042.83 588.466 1122.21 654.17 1211.6 645.485 z"/>
<path transform="translate(0,0)" fill="currentColor" d="M 1758.36 744 C 1750.14 741.068 1736.14 740.774 1726.92 738.382 C 1478.66 673.967 1458.67 333.358 1700.23 242.112 C 1844.45 187.633 2004.03 275.481 2041.21 421.653 C 2045.86 439.92 2045.22 463.866 2048 483.093 L 2048 696.506 C 2044.69 714.942 2044.16 725.418 2027.58 736.879 C 2022.01 740.734 2017.48 741.658 2013.7 744 L 1988.2 744 C 1980.77 739.382 1977.57 741.342 1967.6 731.863 C 1952.47 717.472 1952.68 705.05 1951.53 685.768 C 1923.35 711.256 1889.22 729.267 1852.28 738.151 C 1842.34 740.576 1829.08 740.872 1819.72 743.88 L 1819.36 744 L 1758.36 744 z M 1803.52 645.526 C 1892.4 637.64 1958.15 559.326 1950.53 470.42 C 1942.9 381.514 1864.79 315.535 1775.86 322.894 C 1686.56 330.284 1620.24 408.803 1627.89 498.083 C 1635.55 587.362 1714.26 653.446 1803.52 645.526 z"/>
<path transform="translate(0,0)" fill="currentColor" d="M 0 359.476 C 5.41197 353.244 6.06938 345.546 9.05574 338.124 C 25.7921 296.534 63.1263 265.904 104.092 249.681 C 198.137 208.313 305.046 222.29 382.211 290.875 C 398.782 305.604 418.97 321.32 421.414 345.754 C 424.006 385.84 377.158 415.305 345.014 386.527 C 338.489 380.686 333.342 374.211 326.742 368.56 C 290.082 335.017 249.551 320.15 199.471 323.269 C 169.208 325.154 130.696 338.165 108.953 360.685 C 102.297 367.579 100.819 375.361 99.3998 384.56 C 101.115 389.073 102.835 393.79 104.664 398.239 C 148.016 413.873 191.696 428.583 235.674 442.358 C 283.838 457.682 337.292 471.682 380.113 498.983 C 390.943 505.888 406.584 528.533 411.676 539.622 C 457.389 639.16 365.262 719.392 275.177 738.727 C 265.011 740.909 252.877 740.769 243.503 744 L 182.53 744 C 174.69 741.42 156.037 739.788 145.572 737.012 C 98.4324 724.555 55.7915 698.987 22.5965 663.275 C -8.30689 629.817 -1.02701 583.807 45.5865 575.581 C 77.0031 570.036 100.725 608.277 125.834 622.957 C 179.591 654.388 263.812 655.321 311.543 611.854 C 325.115 599.495 335.873 578.859 312.498 568.812 C 250.981 545.82 186.387 528.408 124.479 506.373 C 77.8934 489.791 34.5971 479.204 12.6919 429.159 C 10.1561 423.365 3.2523 402.822 0 399.408 L 0 359.476 z"/>
<path transform="translate(0,0)" fill="currentColor" d="M 776.24 744 C 732.811 720.563 741.642 709.847 740.607 664.328 C 740.38 654.302 740.608 643.894 740.61 633.89 L 740.649 497.916 L 740.642 353.627 C 740.6 327.205 740.159 300.198 740.767 273.981 C 741.984 221.472 811.487 207.038 832.866 254.767 C 840.714 272.288 837.918 313.253 837.923 334.238 L 837.91 469.985 L 837.925 620.588 C 837.929 647.144 838.474 675.492 837.246 701.899 C 836.541 717.05 823.449 734.489 809.948 740.412 C 807.464 741.592 803.786 742.625 801.68 744 L 776.24 744 z"/>
<path transform="translate(0,0)" fill="currentColor" d="M 555.264 744 C 540.3 737.655 528.373 729.849 522.161 714.148 C 517.355 702.001 519.867 605.401 519.87 586.703 L 519.921 399.258 L 519.815 318.582 C 519.714 286.047 512.84 243.563 550.011 228.418 C 560.679 224.072 576.81 225.134 587.072 229.884 C 595.522 233.406 613.628 251.608 614.807 260.211 C 618.616 288.025 617.068 333.208 617.074 360.498 L 617.098 514.993 L 617.088 632.278 C 617.082 653.683 617.253 675.009 616.759 696.407 C 616.202 720.539 600.584 736.289 578.818 744 L 555.264 744 z"/>
</svg>
