<svg version="1.1" xmlns="http://www.w3.org/2000/svg" viewBox="460 820 1115 540" preserveAspectRatio="xMidYMid meet">
<path transform="translate(0,0)" fill="rgb(228,228,227)" d="M 1011.51 1005.38 C 1069.87 999.312 1096.73 1029.56 1134.07 1067.36 L 1187.24 1121.2 L 1253.55 1187.9 C 1287.74 1222.19 1332.93 1254.93 1295.22 1306.96 C 1280.01 1327.94 1265.18 1309.5 1253.47 1296.35 C 1246.97 1289.04 1239.68 1282.1 1232.78 1275.17 L 1119.12 1160.89 C 1096.84 1138.31 1074.28 1114.72 1050.84 1093.36 C 1046.07 1089.01 1043.02 1087.58 1037.01 1085.54 L 1035.68 1085.11 C 1024.17 1082.06 1009.86 1084.37 999.813 1090.87 C 983.73 1101.26 962.958 1127.39 950.789 1138.95 C 928.869 1159.78 783.717 1312.39 769.441 1317.41 C 747.094 1315.53 734.254 1272.78 741.104 1253.93 C 744.998 1243.21 744.649 1241.03 752.311 1231.51 C 764.951 1215.81 779.254 1202.48 793.42 1188.35 L 856.594 1124.91 L 912.421 1068.66 C 944.946 1035.48 962.793 1011.57 1011.51 1005.38 z"/>
<path transform="translate(0,0)" fill="rgb(228,228,227)" d="M 703.58 1083.4 C 751.716 1078.12 782.461 1108.29 813.201 1139.97 C 795.92 1155.93 776.11 1177.04 759.113 1194 C 754.725 1189.15 750.196 1184.42 745.533 1179.83 C 702.873 1137.85 672.351 1180.35 642.724 1210.85 L 586.207 1268.37 C 576.947 1277.86 543.739 1315.45 531.184 1318.67 C 515.25 1322.77 498.368 1291.7 497.451 1276.53 C 495.83 1249.68 511.044 1234.08 528.782 1215.7 C 556.092 1188.34 583.966 1160.99 610.786 1133.2 C 640.003 1102.92 660.63 1087.63 703.58 1083.4 z"/>
<path transform="translate(0,0)" fill="rgb(228,228,227)" d="M 1332.62 1083.42 C 1410.31 1076.96 1455.51 1161.35 1508.34 1205.38 C 1542.66 1233.99 1570.05 1272.14 1532.58 1313.76 C 1515.52 1332.71 1480.91 1287.25 1468.59 1274.5 L 1451.21 1256.85 L 1398.43 1203.7 C 1387.92 1193.12 1372.36 1175.08 1360.08 1168.04 C 1328.97 1150.21 1306.65 1175.14 1288.74 1193.97 L 1234.74 1139.61 C 1267.55 1105.71 1283.69 1087.83 1332.62 1083.42 z"/>
<path transform="translate(0,0)" fill="rgb(91,194,168)" d="M 1018.07 853.458 C 1044.35 850.299 1068.21 869.047 1071.36 895.325 C 1074.5 921.604 1055.75 945.457 1029.47 948.593 C 1003.2 951.728 979.367 932.984 976.221 906.721 C 973.075 880.458 991.809 856.615 1018.07 853.458 z"/>
<path transform="translate(0,0)" fill="rgb(228,228,227)" d="M 1335.78 922.366 C 1361.89 920.855 1384.3 940.76 1385.87 966.865 C 1387.45 992.971 1367.61 1015.43 1341.51 1017.08 C 1315.31 1018.73 1292.75 998.794 1291.16 972.592 C 1289.58 946.391 1309.57 923.883 1335.78 922.366 z"/>
<path transform="translate(0,0)" fill="rgb(228,228,227)" d="M 707.935 922.397 C 734.029 921.493 755.937 941.871 756.92 967.963 C 757.904 994.054 737.592 1016.02 711.504 1017.09 C 685.303 1018.15 663.219 997.735 662.232 971.531 C 661.244 945.328 681.728 923.306 707.935 922.397 z"/>
</svg>
